<svg xmlns="http://www.w3.org/2000/svg" fill="orange" class="size-6" viewBox="0 0 24 24"><path d="M17 10.4c.14.44-.21.85-.67.85h-3.46a.75.75 0 0 1-.65-.38l-1.74-3c-.22-.4-.05-.9.4-1A5.25 5.25 0 0 1 17 10.41ZM8.12 8.47c.3-.33.84-.23 1.07.16l1.73 3a.75.75 0 0 1 0 .75l-1.73 3c-.23.4-.76.5-1.07.17A5.23 5.23 0 0 1 6.75 12a5.23 5.23 0 0 1 1.37-3.54Zm2.76 8.67c-.45-.1-.63-.6-.4-1l1.74-3a.75.75 0 0 1 .65-.38h3.46c.46 0 .81.4.67.84a5.25 5.25 0 0 1-6.12 3.54Z"/><path fill-rule="evenodd" d="M21 12.75a.75.75 0 1 0 0-1.5h-.78a8.22 8.22 0 0 0-.24-1.36l.73-.26a.75.75 0 1 0-.5-1.41l-.74.26a8.24 8.24 0 0 0-.7-1.19l.6-.5a.75.75 0 1 0-.96-1.15l-.6.5a8.3 8.3 0 0 0-1.05-.88l.39-.68a.75.75 0 1 0-1.3-.75l-.39.68a8.19 8.19 0 0 0-1.3-.47l.14-.77A.75.75 0 0 0 12.82 3l-.13.77a8.36 8.36 0 0 0-1.38 0L11.18 3a.75.75 0 1 0-1.48.26l.13.77c-.44.12-.88.28-1.29.47l-.39-.68a.75.75 0 0 0-1.3.75l.4.68a8.29 8.29 0 0 0-1.06.88l-.6-.5a.75.75 0 1 0-.97 1.15l.6.5a8.24 8.24 0 0 0-.69 1.2l-.73-.27a.75.75 0 1 0-.51 1.4l.73.27a8.22 8.22 0 0 0-.24 1.36H3a.75.75 0 0 0 0 1.5h.78c.05.46.13.92.24 1.35l-.73.27a.75.75 0 0 0 .51 1.41l.74-.26c.2.41.42.81.69 1.19l-.6.5a.75.75 0 0 0 .96 1.15l.6-.5c.32.32.68.62 1.05.88l-.39.68a.75.75 0 0 0 1.3.75l.4-.68c.4.2.84.35 1.28.47l-.13.77a.75.75 0 0 0 1.48.26l.13-.77a8.33 8.33 0 0 0 1.38 0l.14.77a.75.75 0 1 0 1.47-.26l-.13-.77a8.19 8.19 0 0 0 1.29-.47l.4.68a.75.75 0 0 0 1.3-.75l-.4-.68a8.29 8.29 0 0 0 1.05-.88l.6.5a.75.75 0 0 0 .97-1.15l-.6-.5c.26-.38.49-.78.69-1.2l.73.27a.75.75 0 1 0 .51-1.4l-.73-.27c.11-.44.2-.9.24-1.36H21Zm-2.66-3.06a6.74 6.74 0 0 0-1.19-2.05 6.78 6.78 0 0 0-1.82-1.51A6.7 6.7 0 0 0 12 5.25a6.8 6.8 0 0 0-1.23.11 6.7 6.7 0 0 0-2.14.8 6.78 6.78 0 0 0-2.96 3.48.76.76 0 0 1-.03.1A6.74 6.74 0 0 0 5.25 12a6.74 6.74 0 0 0 3.37 5.84 6.7 6.7 0 0 0 2.19.8h.02a6.8 6.8 0 0 0 2.37 0 6.7 6.7 0 0 0 2.2-.8 6.79 6.79 0 0 0 1.76-1.5h.01l.01-.01a6.74 6.74 0 0 0 1.18-2.07c.25-.7.4-1.47.4-2.26a6.74 6.74 0 0 0-.42-2.3Z" clip-rule="evenodd"/></svg>
